<mxfile host="app.diagrams.net" modified="2024-07-02T15:31:05.054Z" agent="Mozilla/5.0 (Windows NT 10.0; Win64; x64) AppleWebKit/537.36 (KHTML, like Gecko) Chrome/126.0.0.0 Safari/537.36 Edg/126.0.0.0" version="24.0.2" etag="hzw9nY1dqBT2EwUusF5Q" type="github">
  <diagram name="Page-1" id="yn7Oz7EBvz3KUj9hgANg">
    <mxGraphModel>
      <root>
        <mxCell id="0" />
        <mxCell id="1" parent="0" />
      </root>
    </mxGraphModel>
  </diagram>
</mxfile>
